<?xml version="1.0" encoding="utf-8"?>
<!-- Generator: Adobe Illustrator 18.1.0, SVG Export Plug-In . SVG Version: 6.00 Build 0)  -->
<svg version="1.1" id="Capa_1" xmlns="http://www.w3.org/2000/svg" xmlns:xlink="http://www.w3.org/1999/xlink" x="0px" y="0px"
	 viewBox="202 -203.1 550.1 550.1" enable-background="new 202 -203.1 550.1 550.1" xml:space="preserve">
<g>
	<path fill="#F2680A" d="M521-18.6c-9.5-15.9-21.4-31.5-31.2-45.3c-1.5-1.8-4-2.4-6.1-1.8C436.3-51.4,362.5-29,335,16.3
		c-9.8,15.9-8,30.9-2.4,46.5c-42.5-21.4-95.8,4.6-118.4,42.8c-30.6,51.4,0.9,109.2,47.4,137.1c3.4,2.1,6.7-3.1,4.6-5.8
		c0.9-0.6,1.8-1.5,1.2-2.8c-6.7-12.9-9.5-27.5-3.4-41c8.6-18.4,26.3-8,39.5-2.8c3.1,1.2,5.2-2.4,3.1-4.9
		c-12.2-12.5-34.3-14.1-45.3,0.3c-10.4,13.8-6.7,33.4,0.9,47.7c-38.6-28.5-61.5-71-41-118.7c8.9-20.2,26.6-34.9,46.5-43.5
		c22.9-9.8,44.4-4,67.6-2.1c0.9,2.4,2.1,5.2,3.1,7.6c1.2,3.4,2.8,7,4.6,11.3c-2.8,1.2-4.9,3.4-6.7,5.5c-5.2,7-2.8,16.5,0.3,23.9
		c-9.5-4.3-23-6.4-28.8,4.3c-4.3,7.6,0.3,16.8,5.8,24.2c-8-0.6-15.3,1.8-18.7,10.7c-4.6,12.5,5.2,24.5,15.6,30
		c1.5,0.6,2.8-1.5,1.5-2.4c-7.3-5.2-12.9-12.9-12.2-22.3c0.6-12.5,14.4-10.4,22.3-7c2.8,1.2,6.4-2.4,4-4.9
		c-5.5-5.8-11-11.9-12.5-20.2c-2.4-13.2,15.9-7,22-4.9c3.7,1.2,5.8-2.8,4-5.2c1.2-0.3,2.1-1.5,1.5-3.1c-1.8-5.8-4-13.5,0-19
		c1.2-1.5,2.8-2.8,4.3-3.4c7,16.5,16.5,35.2,29.4,41.3c0.3,0,0.3,0,0.3,0c0.3,0.6,0.6,1.2,1.5,1.5c15.6,4.9,37.6-9.5,51.1-15.3
		c27.5-12.2,55.4-25.7,80.8-41.6c14.4-8.9,23-19,27.2-29.7c3.7-0.6,7-3.4,4-7.6c-0.3-0.6-0.9-1.2-1.5-1.8c1.8-11-0.3-22.3-4.6-33.7
		c0.9-0.6,2.1-1.5,3.4-2.1c4.6-2.1,9.2-2.4,14.1-1.8c12.5,1.5,18.7,13.5,20.2,24.8c0,0.9,0.6,1.2,1.2,1.5c0,0.3,0,0.6-0.3,0.9
		c-0.3,2.1,2.8,4,4.3,1.8c4.3-5.8,7.7-17.1,16.8-16.5c11,0.6,11.6,19.6,11.3,26.9c-0.3,3.7,5.2,6.1,6.7,2.1c3.1-8,8-18.1,18.1-17.4
		c10.4,0.6,15.3,14.7,18.1,22.3c0.3,1.2,1.8,1.5,2.8,1.5c-0.3,2.4-0.3,4.9,0.3,7.3s4,3.7,5.2,0.9c3.1-8,4-15.6,10.7-21.4
		c5.5-4.6,12.9-5.5,19.6-4.6c20.2,2.8,23.9,23.6,17.4,39.5c-1.2,3.1,3.4,5.2,4.6,2.1c8.6-19,4-41.9-18.1-48
		c-15-4.3-33.7,4.3-38.6,18.7c-3.1-11-9.2-21.7-20.8-24.8c-8.3-2.1-14.7,3.1-19.6,9.5c-1.2-8.6-5.2-16.5-13.5-20.8
		c-9.5-4.6-18.1,3.7-22.3,12.5c-1.8-11.9-8.6-22.3-21.1-25.7c-7-1.8-16.2-1.2-23.3,2.4c-2.1-4.9-4.9-9.8-7.7-14.7
		c1.2,0.3,2.8,0,3.1-1.8c12.5-71,82.9-84.2,142.6-61.8c26.9,10.1,52.3,29.1,65.2,55.1c18.1,36.1-3.7,67.3-23.6,96.4
		c-2.1,3.1,1.5,7.6,4.6,4.9C859.8-47.4,534.2-193.7,521-18.6z M351.5,13.2c27.5-31.8,75.6-49.9,116.6-63
		c-11.3,26.6-2.8,86.6-34,100.4c-24.2,10.4-67-4-93-9.5C341.4,30.3,344.8,20.8,351.5,13.2z M353.7,92.1c1.2-0.3,2.4-0.3,3.7-0.6
		c3.1-0.6,1.8-4.9-0.6-5.5c-1.8-0.3-4-0.6-6.1-0.3c-5.8-13.5-9.5-27.5-9.8-40.7c15.6,8,38.3,15,59.7,17.1c-5.2,8-8,18.4-10.4,26.6
		c-4.3,12.9-8,26-11.6,39.5C369.9,119.1,360.7,106.2,353.7,92.1z M525.6,13.2c0.3,0,0.3-0.3,0.3-0.3c0.3,0.9,0.6,1.5,0.9,2.1
		c2.8,7.3,3.7,14.1,2.8,19.9c-2.8-1.2-5.8-2.4-8.3-3.7c-9.8-4.6-19.9-8.6-30-12.9c-4.3-1.8-8.6-3.7-13.2-5.5
		c-1.2-0.6-5.5-0.9-6.1-1.5c-1.5-1.8-4.3,0.3-3.1,2.1c4.9,8.6,21.1,12.5,29.4,16.5c8,3.7,15.9,7.3,23.6,11.3
		c1.8,0.9,3.4,1.8,4.9,2.8c-6.1,14.7-21.7,25.7-37,34.6c-30.9,18.1-69.2,41.6-105.3,50.8c4.3-11.3,7.6-22.9,11.3-34.3
		c4-11.3,9.8-21.7,14.1-33c11.3,0.3,22-0.9,30.6-4.6c27.2-11,36.1-82.9,35.2-107.1c0-1.5-0.6-2.4-1.8-3.1c2.8-0.9,5.5-1.8,8-2.4
		c6.7-2.1,29.7,40.1,39.5,60.3c-0.9,1.2-1.5,2.4-2.1,3.7C519.2,12.3,522.6,15.3,525.6,13.2z"/>
</g>
</svg>
