<?xml version="1.0" encoding="utf-8"?>
<!-- Generator: Adobe Illustrator 18.1.0, SVG Export Plug-In . SVG Version: 6.00 Build 0)  -->
<svg version="1.1" id="Capa_1" xmlns="http://www.w3.org/2000/svg" xmlns:xlink="http://www.w3.org/1999/xlink" x="0px" y="0px"
	 viewBox="-21 -23 185 182" enable-background="new -21 -23 185 182" xml:space="preserve">
<circle fill="#CC740A" cx="72.5" cy="72" r="87"/>
<g>
	<path fill="#FFFFFF" d="M86.1,50.5c-2.5-4.7-5.6-9.2-8.2-13.3c-0.4-0.5-1.1-0.7-1.6-0.5c-12.5,4.2-31.9,10.7-39.2,24
		c-2.6,4.7-2.1,9-0.6,13.6c-11.2-6.3-25.3,1.3-31.2,12.5c-8.1,15,0.2,32,12.5,40.1c0.9,0.6,1.8-0.9,1.2-1.7c0.2-0.2,0.5-0.4,0.3-0.8
		c-1.8-3.8-2.5-8.1-0.9-12c2.3-5.4,6.9-2.3,10.4-0.8c0.8,0.4,1.4-0.7,0.8-1.4c-3.2-3.7-9-4.1-11.9,0.1c-2.7,4-1.8,9.8,0.2,14
		C7.7,115.9,1.7,103.5,7.1,89.5c2.3-5.9,7-10.2,12.3-12.7c6-2.9,11.7-1.2,17.8-0.6c0.2,0.7,0.6,1.5,0.8,2.2c0.3,1,0.7,2,1.2,3.3
		c-0.7,0.4-1.3,1-1.8,1.6c-1.4,2-0.7,4.8,0.1,7c-2.5-1.3-6.1-1.9-7.6,1.3c-1.1,2.2,0.1,4.9,1.5,7.1c-2.1-0.2-4,0.5-4.9,3.1
		c-1.2,3.7,1.4,7.2,4.1,8.8c0.4,0.2,0.7-0.4,0.4-0.7c-1.9-1.5-3.4-3.8-3.2-6.5c0.2-3.7,3.8-3,5.9-2c0.7,0.4,1.7-0.7,1.1-1.4
		c-1.4-1.7-2.9-3.5-3.3-5.9c-0.6-3.9,4.2-2,5.8-1.4c1,0.4,1.5-0.8,1.1-1.5c0.3-0.1,0.6-0.4,0.4-0.9c-0.5-1.7-1.1-4,0-5.6
		c0.3-0.4,0.7-0.8,1.1-1c1.8,4.8,4.3,10.3,7.7,12.1c0.1,0,0.1,0,0.1,0c0.1,0.2,0.2,0.4,0.4,0.4c4.1,1.4,9.9-2.8,13.5-4.5
		C68.7,88,76.1,84,82.8,79.4c3.8-2.6,6.1-5.6,7.2-8.7c1-0.2,1.8-1,1.1-2.2c-0.1-0.2-0.2-0.4-0.4-0.5c0.5-3.2-0.1-6.5-1.2-9.9
		c0.2-0.2,0.6-0.4,0.9-0.6c1.2-0.6,2.4-0.7,3.7-0.5c3.3,0.4,4.9,4,5.3,7.3c0,0.3,0.2,0.4,0.3,0.4c0,0.1,0,0.2-0.1,0.3
		c-0.1,0.6,0.7,1.2,1.1,0.5c1.1-1.7,2-5,4.4-4.8c2.9,0.2,3.1,5.7,3,7.9c-0.1,1.1,1.4,1.8,1.8,0.6c0.8-2.3,2.1-5.3,4.8-5.1
		c2.7,0.2,4,4.3,4.8,6.5c0.1,0.4,0.5,0.4,0.7,0.4c-0.1,0.7-0.1,1.4,0.1,2.1c0.2,0.7,1.1,1.1,1.4,0.3c0.8-2.3,1.1-4.6,2.8-6.3
		c1.4-1.3,3.4-1.6,5.2-1.3c5.3,0.8,6.3,6.9,4.6,11.6c-0.3,0.9,0.9,1.5,1.2,0.6c2.3-5.6,1.1-12.3-4.8-14.1c-4-1.3-8.9,1.3-10.2,5.5
		c-0.8-3.2-2.4-6.4-5.5-7.3c-2.2-0.6-3.9,0.9-5.2,2.8c-0.3-2.5-1.4-4.8-3.6-6.1c-2.5-1.3-4.8,1.1-5.9,3.7c-0.5-3.5-2.3-6.5-5.6-7.5
		c-1.8-0.5-4.3-0.4-6.1,0.7c-0.6-1.4-1.3-2.9-2-4.3c0.3,0.1,0.7,0,0.8-0.5C90.8,30,109.3,26.1,125,32.7c7.1,3,13.8,8.5,17.2,16.1
		c4.8,10.6-1,19.7-6.2,28.2c-0.6,0.9,0.4,2.2,1.2,1.4C175.4,42.1,89.6-0.8,86.1,50.5z M41.4,59.8c7.2-9.3,19.9-14.6,30.7-18.4
		c-3,7.8-0.7,25.4-9,29.4c-6.4,3-17.7-1.2-24.5-2.8C38.7,64.8,39.6,62,41.4,59.8z M42,82.9c0.3-0.1,0.6-0.1,1-0.2
		c0.8-0.2,0.5-1.4-0.2-1.6c-0.5-0.1-1.1-0.2-1.6-0.1c-1.5-4-2.5-8.1-2.6-11.9c4.1,2.3,10.1,4.4,15.7,5c-1.4,2.3-2.1,5.4-2.7,7.8
		c-1.1,3.8-2.1,7.6-3.1,11.6C46.3,90.8,43.8,87,42,82.9z M87.3,59.8C87.4,59.8,87.4,59.7,87.3,59.8c0.2,0.2,0.2,0.4,0.3,0.5
		c0.7,2.1,1,4.1,0.7,5.8c-0.7-0.4-1.5-0.7-2.2-1.1c-2.6-1.3-5.2-2.5-7.9-3.8c-1.1-0.5-2.3-1.1-3.5-1.6c-0.3-0.2-1.4-0.3-1.6-0.4
		c-0.4-0.5-1.1,0.1-0.8,0.6c1.3,2.5,5.6,3.7,7.7,4.8c2.1,1.1,4.2,2.1,6.2,3.3c0.5,0.3,0.9,0.5,1.3,0.8c-1.6,4.3-5.7,7.5-9.8,10.1
		c-8.1,5.3-18.2,12.2-27.8,14.9c1.1-3.3,2-6.7,3-10c1.1-3.3,2.6-6.4,3.7-9.7c3,0.1,5.8-0.3,8.1-1.3c7.2-3.2,9.5-24.3,9.3-31.4
		c0-0.4-0.2-0.7-0.5-0.9c0.7-0.3,1.4-0.5,2.1-0.7c1.8-0.6,7.8,11.7,10.4,17.7c-0.2,0.4-0.4,0.7-0.6,1.1
		C85.6,59.5,86.5,60.4,87.3,59.8z"/>
</g>
</svg>
