<?xml version="1.0" encoding="utf-8"?>
<!-- Generator: Adobe Illustrator 18.1.0, SVG Export Plug-In . SVG Version: 6.00 Build 0)  -->
<svg version="1.1" id="Layer_1" xmlns="http://www.w3.org/2000/svg" xmlns:xlink="http://www.w3.org/1999/xlink" x="0px" y="0px"
	 viewBox="0 0 150 150" enable-background="new 0 0 150 150" xml:space="preserve">
<circle fill="#CC740A" cx="75" cy="78.5" r="68.9"/>
<g>
	<path fill="#FFFFFF" d="M122.9,84.4c-1.2-0.2-2.3-0.3-3.4-0.6c1.1-0.6,2.1-1.3,2.8-2.5c0.3-0.6,0.1-1-0.3-1.3
		c-0.8-0.6-1.6-1.2-2.4-1.7c3.7-2.8,3.4-8.3,1.9-12.7c-0.2-0.6-1.3-0.8-1.5,0c-0.6,4,2.5,9.7-2.8,11.6c-1,0.3-1,1.5,0,1.9
		c1,0.5,1.9,1,2.8,1.7c-1,1-2.1,1.7-3.5,2.1c-0.9,0.3-1,1.5,0,1.8c1.5,0.5,2.8,0.7,4.3,0.8c-22.3,20.2-43.9-7.6-67.7-4.3
		c0.3-14.5-1.7-29.2-3.2-43.5c11.6-6.3,27.7,5,38,9c8.2,3.1,25.3,5.9,29.2-5.1c0.6,4.2,3.2,9.7-0.5,13.1c-0.6,0.5-0.2,1.3,0.3,1.4
		c4,1.3,0.5,3.1,0.4,5.5c-0.1,1.8,1.3,2.6,2.9,3.1c0.6,0.2,0.8-0.6,0.3-0.8c-4-2.4,2.8-6.4-2-8.9c3.2-4,0.8-9.4,0.2-14.1
		c-0.2-0.7-1-0.8-1.4-0.6c-0.1-1-1.4-1.2-1.8-0.2C110.2,53,92,46.8,83.6,42.7c-5.5-2.7-10.5-6-16.4-7.3c-4.9-1-12.3-1.5-17.6,0.9
		c-0.2-0.7-0.2-1.4-0.2-2.1c-0.1-0.4-0.3-0.6-0.6-0.8c-1.1-1.4-4.2-1-5.2,0.3c-0.3,0.3-0.2,1,0.2,1.2c-0.3-0.2-0.8-0.1-0.9,0.4
		c-2.6,29.6,7,60.1-7.4,88c-0.5-0.2-1,0.4-0.6,0.8l0,0c0.2,0.5,0.6,1,1.1,1.3c0.1,0.2,0.2,0.2,0.2,0.2c0.2,0.2,0.2,0.2,0.3,0.2
		c1.7,1.3,4,1.9,5.5,0.6c0.3-0.2,0.2-0.8-0.1-1c7.1-7.5,9.3-22.4,10.5-32.1c0.4-3.2,0.6-6.5,0.8-9.8c14.8-1.5,26.4,7.7,41,11.6
		c11,3,22.2,0.2,29.2-9c0.2-0.2,0.2-0.2,0.2-0.3C123.8,85.2,123.6,84.6,122.9,84.4z M51.2,81.9c-1.6,0.3-3.1,0.8-4.7,1.5
		c0.4-13.8-1-27.8-1.9-41c0.2,0.1,0.3,0,0.6-0.2c1-1.1,1.9-2.1,2.9-2.8C49.2,53.4,51.2,67.6,51.2,81.9z M44.5,35
		c0.6-0.2,1-0.4,1.5-0.6c0.6-0.1,1,0.2,1.6,0.3c0.1,0.9,0.2,1.7,0.2,2.5c-1.3,0.9-2.5,2-3.4,3.5c-0.2-1.9-0.2-3.7-0.3-5.5
		c0-0.2-0.2-0.3-0.2-0.3C44.1,35,44.2,35,44.5,35z M40.8,125c-0.8,0-1.5,0.1-2.2-0.2c-0.5-0.2-0.9-0.3-1.3-0.6
		c0-0.1,0.1-0.1,0.2-0.2c6.2-12,8.6-25.6,9-39.5c1.7-0.6,3.2-1,4.8-1.1C50.9,95.9,48.6,114.8,40.8,125z"/>
	<path fill="#FFFFFF" d="M36.4,125.4L36.4,125.4"/>
	<path fill="#FFFFFF" d="M97.1,68c-0.2-0.1-0.3-0.2-0.6-0.2c1.9-1.7,2.8-4,0.2-5.7c-0.2-0.5-0.6-0.8-1.2-0.3c-3.3,2.6-6.2,3.5-8.1-1
		c-0.6-1.7-1-3.3-1.6-5c-1-3.2-2.4-5.7-5.1-7.8c-7.2-5.5-16.1,2-18.9,8.5c-7.1,17,19.1,28.6,31.8,20.8c0.2,0.1,0.2,0.1,0.2-0.1
		c2.4-1.5,3.6-4.6,1.4-5.5c0.7-0.8,1.3-1.7,1.9-2.6C97.9,68.8,97.7,68.1,97.1,68z M94.3,76.1c-0.2-0.2-0.3-0.2-0.6,0
		c-8.5,4.2-18.5,2.1-25.4-4c-8.7-7.5-5.5-23.1,6.9-24.1c9.2-0.6,9,10.5,12.1,15.9c2.2,3.8,6.2,1.9,8.6-0.5c2.1,1.7-0.1,3.1-1.3,3.9
		c-0.5,0.3-0.6,1,0,1.3c0.3,0.2,0.6,0.3,1,0.6c-0.6,1-1.3,1.9-2.4,2.4c-0.8,0.3-0.3,1.6,0.4,1.5C96.3,73.1,95.4,74.9,94.3,76.1z"/>
	<path fill="#FFFFFF" d="M68.4,55.9c0-0.2-0.2-0.4-0.3-0.3l0,0c-0.2-0.2-0.2-0.2-0.3-0.2c-0.6-0.3-1.2,0.4-0.8,0.9
		c-3.1,2.5-2.2,10.1,2.3,10.2C74.4,66.7,70.9,58.5,68.4,55.9z M70.1,65.1c-2.1,1.5-3.5-1.7-3.7-3.2c-0.2-1.6,0.2-3.6,1.1-5
		C69.1,58.9,72.2,63.6,70.1,65.1z"/>
	<path fill="#FFFFFF" d="M79.1,55.7c-1.3-1.7-4.8-4-6.9-3.2c-0.5,0.2-0.6,0.9-0.2,1.1c0.6,0.3,1.3,0.3,2,0.6c1,0.2,1.7,0.8,2.6,1.3
		c1.9,1.3,3.1,3.9,1.3,5.8c-1.3,1.3-3.3-0.8-4.2-1.7c-1.3-1.3-2.3-3.2-2.5-5.1c-0.1-0.6-0.8-0.6-0.8,0c-0.2,3.1,4.4,10.5,8.2,7.6
		C80.9,60.6,80.5,57.5,79.1,55.7z"/>
	<path fill="#FFFFFF" d="M84,66.6c-1.6-2.1-5.4-2.1-7.8-1.7c-2.9,0.6-4.2,2.9-3.5,5.5c-0.3,0-0.7,0.3-0.5,0.8
		c0.6,0.8,1.9,2.4,2.9,1.3c0.3-0.4,0.3-1,0.5-1.5c0.2-1.3,1-1.3,2.1-1.3C79.2,69.8,86.6,70.3,84,66.6z M80.2,68.6
		c-1.3-0.1-2.8-0.3-4.1-0.2c-0.6,0.2-1.2,0.5-1.4,1.1c-0.2,0.5-0.2,1-0.3,1.3c-0.1,0.5-0.2,0.5-0.6,0.3v-0.1
		c-0.8-2.8,0.2-4.6,3.1-5.1c1.8-0.3,4.5-0.2,5.9,1.3C84.2,68.6,80.8,68.6,80.2,68.6z"/>
</g>
</svg>
