<?xml version="1.0" encoding="utf-8"?>
<!-- Generator: Adobe Illustrator 18.1.0, SVG Export Plug-In . SVG Version: 6.00 Build 0)  -->
<svg version="1.1" id="Capa_1" xmlns="http://www.w3.org/2000/svg" xmlns:xlink="http://www.w3.org/1999/xlink" x="0px" y="0px"
	 viewBox="0 0 145 145" enable-background="new 0 0 145 145" xml:space="preserve">
<g>
	<path fill="#F2680A" d="M144,79.8c-1.8-0.2-3.5-0.5-5.2-0.9c1.7-0.9,3.2-2.1,4.3-3.9c0.5-0.8,0.1-1.5-0.5-2
		c-1.2-0.9-2.4-1.8-3.6-2.6c5.7-4.2,5.2-12.8,2.9-19.4c-0.3-1-2.1-1.2-2.3,0c-0.9,6.2,3.9,14.8-4.2,17.9c-1.5,0.5-1.4,2.3,0,2.9
		c1.6,0.7,2.9,1.6,4.3,2.6c-1.4,1.6-3.3,2.5-5.4,3.3c-1.3,0.5-1.4,2.3,0,2.8c2.3,0.7,4.3,1.1,6.6,1.2c-34.2,31-67.4-11.7-104-6.6
		c0.5-22.3-2.6-44.8-5-66.8c17.8-9.6,42.5,7.6,58.4,13.7c12.6,4.8,38.8,9.1,44.7-7.8c0.9,6.5,4.9,15-0.7,20.1
		c-0.8,0.7-0.3,1.9,0.5,2.2c6.1,2.1,0.7,4.7,0.6,8.4c-0.1,2.8,2,4,4.4,4.7c0.8,0.2,1.2-0.9,0.5-1.2c-6.2-3.7,4.2-9.9-3-13.6
		c4.9-6.1,1.2-14.5,0.2-21.7c-0.2-1.1-1.4-1.2-2.2-0.8c-0.1-1.5-2.2-1.8-2.8-0.3c-7.9,19.4-35.9,9.9-48.8,3.7
		c-8.5-4.1-16-9.2-25.2-11.2C51,2.9,39.7,2.2,31.5,5.8c-0.2-1.1-0.2-2.2-0.4-3.2c-0.1-0.6-0.5-1-0.9-1.2c-1.7-2.2-6.4-1.5-7.9,0.5
		c-0.5,0.5-0.3,1.4,0.2,1.8c-0.5-0.3-1.2-0.1-1.3,0.6c-4,45.4,10.7,92.3-11.3,134.9c-0.7-0.3-1.4,0.6-1,1.2l0,0
		c0.4,0.7,1,1.5,1.7,2.1c0.1,0.2,0.2,0.2,0.3,0.4c0.2,0.2,0.3,0.2,0.5,0.2c2.6,1.9,6.1,2.9,8.4,0.9c0.5-0.4,0.4-1.2-0.1-1.6
		c11-11.6,14.3-34.4,16.1-49.2c0.6-5,0.9-10,1.2-15.1c22.7-2.3,40.5,11.8,63,17.9c16.9,4.6,34.1,0.4,44.7-13.9
		c0.2-0.2,0.2-0.4,0.2-0.5C145.3,81,145,80,144,79.8z M33.8,76c-2.4,0.5-4.8,1.2-7.2,2.3c0.6-21.1-1.4-42.7-2.9-63
		c0.2,0.1,0.5,0,0.8-0.3c1.4-1.7,2.9-3.2,4.5-4.3C30.9,32.3,33.8,54,33.8,76z M23.6,3.9c0.8-0.2,1.5-0.6,2.3-0.8
		c0.9-0.1,1.6,0.2,2.4,0.5c0.1,1.3,0.2,2.6,0.3,3.9c-2.1,1.3-3.9,3.1-5.2,5.3c-0.2-2.9-0.4-5.7-0.5-8.5c0-0.2-0.2-0.5-0.2-0.5
		C23,4,23.2,4.1,23.6,3.9z M17.9,142.1c-1.2,0-2.3,0.1-3.4-0.2c-0.7-0.2-1.3-0.5-1.9-0.9c0-0.1,0.1-0.1,0.2-0.2
		c9.5-18.5,13.1-39.3,13.9-60.5c2.5-0.8,5-1.4,7.3-1.7C33.5,97.4,30,126.4,17.9,142.1z"/>
	<path fill="#F2680A" d="M11.2,142.7L11.2,142.7"/>
	<path fill="#F2680A" d="M104.4,54.6c-0.2-0.1-0.5-0.2-0.8-0.2c2.9-2.6,4.3-6.2,0.4-8.7c-0.2-0.7-1-1.2-1.8-0.5
		c-5.1,4-9.5,5.4-12.4-1.6c-1-2.5-1.6-5.1-2.4-7.7c-1.5-5-3.6-8.8-7.8-11.9c-11.1-8.5-24.7,3-28.9,13C39.8,63.2,80,80.9,99.4,68.8
		c0.2,0.1,0.3,0.1,0.4-0.1c3.7-2.3,5.6-7,2.2-8.4c1.1-1.2,1.9-2.6,2.9-4C105.6,55.8,105.2,54.8,104.4,54.6z M100.1,67.1
		c-0.2-0.2-0.5-0.2-0.9,0c-13,6.4-28.3,3.3-39-6.1c-13.4-11.6-8.5-35.4,10.6-37C84.9,23,84.5,40,89.4,48.4c3.4,5.8,9.5,2.9,13.3-0.7
		c3.2,2.5-0.1,4.7-1.9,5.9c-0.7,0.5-0.8,1.5,0,2c0.5,0.3,1,0.5,1.5,0.8c-1,1.5-2,2.9-3.7,3.7c-1.2,0.5-0.5,2.4,0.6,2.3
		C103.2,62.4,101.8,65.2,100.1,67.1z"/>
	<path fill="#F2680A" d="M60.3,36.1c0-0.3-0.2-0.6-0.5-0.5l0,0c-0.2-0.2-0.3-0.3-0.5-0.4c-0.9-0.5-1.8,0.6-1.2,1.3
		c-4.7,3.9-3.4,15.4,3.5,15.7C69.6,52.6,64.1,40,60.3,36.1z M62.9,50.2c-3.3,2.3-5.4-2.6-5.7-5s0.2-5.5,1.7-7.6
		C61.5,40.6,66.2,47.9,62.9,50.2z"/>
	<path fill="#F2680A" d="M76.8,35.8c-1.9-2.5-7.4-6.2-10.6-4.9c-0.7,0.2-1,1.3-0.2,1.7c1,0.5,2.1,0.5,3.1,0.8c1.5,0.4,2.7,1.2,4,1.9
		c2.9,2,4.8,5.9,1.9,8.9c-1.9,1.9-5.1-1.2-6.4-2.5c-2-2.1-3.5-4.9-3.8-7.8c-0.1-0.8-1.2-0.8-1.2,0c-0.2,4.8,6.7,16.1,12.6,11.7
		C79.4,43.3,79,38.6,76.8,35.8z"/>
	<path fill="#F2680A" d="M84.2,52.5c-2.4-3.3-8.3-3.3-11.9-2.6c-4.5,0.9-6.4,4.4-5.4,8.4c-0.5,0-1.1,0.5-0.7,1.2
		c0.8,1.2,2.9,3.7,4.4,1.9c0.5-0.6,0.5-1.5,0.7-2.3c0.3-2.1,1.4-2,3.3-1.9C76.9,57.4,88.3,58.2,84.2,52.5z M78.3,55.5
		c-2.1-0.1-4.2-0.5-6.3-0.2c-1,0.2-1.8,0.7-2.2,1.7c-0.2,0.7-0.4,1.4-0.5,2.1s-0.4,0.7-0.8,0.5v-0.1c-1.2-4.2,0.4-7,4.7-7.8
		c2.8-0.5,6.9-0.2,9.1,1.9C84.5,55.5,79.3,55.5,78.3,55.5z"/>
</g>
</svg>
