<?xml version="1.0" encoding="utf-8"?>
<!-- Generator: Adobe Illustrator 18.1.0, SVG Export Plug-In . SVG Version: 6.00 Build 0)  -->
<svg version="1.1" id="Capa_1" xmlns="http://www.w3.org/2000/svg" xmlns:xlink="http://www.w3.org/1999/xlink" x="0px" y="0px"
	 viewBox="198 -198.7 541.7 541.7" enable-background="new 198 -198.7 541.7 541.7" xml:space="preserve">
<g>
	<path fill="#B21E06" d="M725.1-192.7c-21.1-14.4-47.7-0.9-52.3,21.7c-15.3-15-42.5-25.1-55.4-3.7c-19.9,34,30,58.8,56.3,45.3
		c4-2.1,1.2-8.9-3.1-7.3c-21.1,8.6-64.6-11.9-42.5-37.9c11.9-14.1,37.6,4.6,44.4,14.7c1.8,3.1,7.3,2.1,7-1.8
		c-0.9-14.7,7-24.5,20.5-29.1c10.4-3.7,20.2,1.8,26.3,10.1c16.5,22.6-7.7,31.5-22.3,33c-2.1-3.4-8.3-1.2-7.3,3.4
		c2.8,13.2,4.6,26.6,6.1,39.8c-0.9,0.3-1.8,0.6-2.8,0.9c-6.7,1.5-13.5-1.2-18.1-5.5c0.3-6.7,0-13.5-0.9-20.5c-0.6-4-7-2.4-6.1,1.5
		c2.1,9.8,2.8,20.2,4,30.3c0.3,1.2,1.8,1.2,2.1,0c0.3-1.8,0.3-3.7,0.6-5.5c3.7,3.4,8.3,5.8,13.5,6.1c2.8,0.3,5.5,0,8.6-0.3
		c0,1.2,0.3,2.8,0.3,4c-3.1,2.1-6.1,3.7-10.1,4c-4.3,0.3-8.6-0.9-12.5-3.1c0-1.5-0.6-2.8-2.8-3.1c-67.9-9.5-136.2-5.2-204.4-4
		c-35.2,0.6-70.1-1.2-105.3-2.4c-40.7-1.5-79.6,10.4-120,8h-0.3c0.3-4.3,0.3-8.6,0.6-12.9c0-1.8,0.3-3.7,0.6-5.2
		c4.3,0.9,8.9,0.9,12.9,0.6c15-1.5,32.1-9.5,36.1-25.1c7.3-28.8-24.8-30.9-45.3-20.8c2.8-8.9,3.4-18.7-4.6-23.9
		c-9.2-6.1-23.9,1.8-31.5,6.7c-8.3,5.5-19.9,15-19,26c0.9,11.6,14.7,12.9,25.4,12.2c-5.2,17.7-8.6,35.5-10.7,53.6
		c-0.9,0.3-1.5,1.2-1.2,2.4c0.3,0.6,0.6,0.9,0.6,1.2c-7,68.5,4.6,139.2,4.9,207.8c0.3,31.8-10.4,124.8,22.9,148.7
		c-13.8,2.1-28.5,8.3-33.4,22.3c-4,11.6,0,23.9,7.7,33c6.7,8.3,19,13.2,29.1,8.6c11-5.2,16.2-16.8,18.7-28.8
		c9.8,13.8,30.6,18.1,45.9,5.5c10.1-8.3,11-26,2.8-35.8c-7.6-9.2-24.2-16.5-37.6-16.8c-1.8-10.7-4.3-20.8-8-30.6
		c0.6,0.9,1.5,1.2,2.4,0.6c0.3,0.3,0.9,0.6,1.8,0.6c61.8-8.6,123.9-4.6,186.4-4.3c68.9,0.3,136.5-7,205,2.1
		c-1.5,7-2.1,14.4-1.5,21.1c-36.4-5.5-62.4,38.6-37.9,67.3c9.2,10.7,24.5,8.3,35.2,1.8c8-4.9,13.8-12.5,17.4-21.1
		c3.7,5.8,8.9,10.4,16.5,11.3c11.9,1.5,23.6-5.5,30.9-14.4c21.1-24.8-7.3-50.5-34.3-45c2.8-8,4.9-15.9,6.7-24.5
		c0.6-0.6,1.2-0.9,1.5-1.5c0.6-1.2,0.3-2.1-0.6-3.1c0.6-3.4,1.2-6.7,1.8-10.1c1.5-0.6,2.8-1.5,4.3-2.4c2.1-1.5,0.9-5.2-1.8-4.6
		c-0.3,0-0.6,0.3-0.9,0.3c6.4-42.5,5.5-89,8.6-128.2c4.6-60.6,11-120.6,4.6-180.5c2.1-1.2,4-2.4,5.5-4.6c1.5-2.1-0.9-4.6-3.1-4.3
		c-0.9,0.3-2.1,0.6-3.1,0.9c-1.2-10.4-3.1-21.1-5.2-31.5C732.7-142.9,754.8-172.5,725.1-192.7z M207-149c1.2-7.3,9.5-13.5,15-17.1
		c5.8-4,14.4-8.9,21.4-7.6c9.5,1.8-0.6,22.9-2.4,26.9c-2.1,4.9,4,8.6,7,4.3c8.3-11,42.8-21.4,43.5,0.3c0.3,14.1-28.5,26.6-40.7,21.4
		c0-1.2,0.3-2.1,0.3-3.4c0-2.8-3.7-3.1-4.6-0.9c-0.3-0.6-0.6-1.2-0.6-2.1c-0.6-3.4-5.8-3.1-6.7,0c-1.5,6.4,0.9,10.7,5.2,12.9
		c-0.6,6.7,0,13.8,0.3,20.5h-0.3c-3.4,0.9-6.4,3.4-10.1,3.1c-4.9-0.6-6.4-7.3-7.6-11.3c-0.3-0.9-0.9-1.2-1.5-1.5
		c1.5-10.7,4-21.1,6.7-31.8c0-0.6,0.3-0.9,0-1.5c1.2-1.2,0.3-3.7-1.8-4C226.3-141.3,206.1-141.3,207-149z M223.6-91.8
		c1.5,3.4,3.7,6.1,7,7.7s8.9,1.5,13.2-0.3c0.3,2.4,0.3,4.9,0.6,7.3h-0.3c-4.9,1.8-8,5.2-13.5,5.5c-3.1,0-6.1-0.9-8.6-2.8
		C222.6-80.1,222.9-85.9,223.6-91.8z M227.2,109.9c-0.6-59.7-9.2-119.3-5.5-178.7c2.1,1.2,4.3,2.4,6.7,3.1c5.2,1.2,12.2-0.3,16.5-4
		c3.4,49.3,6.7,97.3,4.6,147.2c-1.8,46.2-1.5,91.5,10.1,135.9c-4.3,1.2-8,3.1-12.9,3.1c-7-0.3-12.5-4.9-14.4-11.6
		c-0.6-2.1-4.3-1.8-4,0.6c0.9,8,5.5,13.8,13.2,16.5c5.5,2.1,14.4,2.1,20.2-0.9c0.3,1.5,0.6,3.1,1.2,4.3h-0.3c-0.3,0-0.6,0.3-0.9,0.3
		c-0.3-0.6-1.2-0.3-1.2,0.6c-4.6,1.8-8.3,4.9-13.2,5.5c-7.3,0.9-13.5-2.8-16.8-8.9c-0.3-0.9-1.2-1.2-2.1-1.2
		C224.2,184.3,227.5,143.9,227.2,109.9z M268.2,266c-0.6,0-1.2,0-1.5,0.3c-2.8,0.6-3.4,4.6-0.9,6.1c8,4.3,18.7,4,27.2,7
		c13.5,4.9,21.4,19.9,11.3,31.8c-13.8,16.8-39.5,2.1-39.2-16.8c0-5.5-8-5.2-8.3,0c-1.8,17.4-13.2,56.3-35.5,32.4
		c-5.5-6.1-8-14.7-6.1-22.6c3.1-13.5,18.7-18.4,30-21.7c2.4-0.6,2.1-5.2-0.6-4.9h-0.3c-7.3-13.8-11.9-29.4-14.4-45.9
		c3.7,4.3,8.3,7,14.4,7.3c6.1,0.6,13.8-0.9,18.4-5.2C265.5,244.2,267,255.2,268.2,266z M474.8,224.3c-68.9,3.1-137.4-4.9-205.6,8
		l0,0c-1.2-4.9-2.4-9.8-3.4-14.7c0.3-0.3,0.3-0.3,0.6-0.6c1.2-1.8,0-3.7-1.5-4.3c-9.2-44.7-9.5-89.4-8-135.3
		c2.1-56-2.1-109.5-5.8-165.2c22.6,2.4,44.1,0.9,66.7-3.1c39.2-6.4,79.9-1.2,119.6-0.3c78.6,1.5,157.6-6.7,235.9,3.7
		c-6.7,51.4,1.2,103.7,2.8,155.4c1.5,45.6-12.5,92.4-10.7,137.7c-1.2,0-2.1,1.5-1.2,2.4c0.3,0.3,0.9,0.6,1.2,1.2
		c0.3,4,0.3,8,0.9,11.9c-0.6,0.3-0.9,0.6-1.2,1.2c-0.3,0.9-0.6,1.8-0.9,2.8C600.9,217,538.1,221.6,474.8,224.3z M671.5,213.3
		c3.4,1.8,6.7,3.1,10.1,4c-0.3,3.7-0.3,7-0.6,10.7c-3.1-0.9-5.8-3.7-8-6.1c-0.6-0.6-1.2-0.6-1.8-0.6
		C671.2,218.8,671.5,216.1,671.5,213.3z M719.3,274.5c4.6,6.4-0.3,15.3-4.6,20.2c-5.2,5.8-12.5,10.4-20.5,10.4
		c-10.7,0.3-14.4-12.2-15.9-20.8c-0.9-5.8-9.5-4-9.8,1.2c-0.6,15.9-17.7,42.5-36.7,31.8c-11.6-6.7-11.6-25.7-6.4-35.8
		c6.4-13.2,21.7-19.9,35.8-19l0,0c1.2,1.5,4.9,0.9,4.6-1.5c-0.6-7,0.3-13.5,1.5-20.5c0.6-3.4,1.5-7,2.1-10.4l0,0
		c0.9,0,2.1-0.9,1.8-2.1l0,0c2.4,2.8,5.5,4.9,9.5,6.1c0,9.2,0.3,18.4,0.9,26.9c0.3,1.8,1.8,2.1,3.1,1.2l0,0
		C696,266.3,711.6,263.2,719.3,274.5z M697.9,80.8c-3.7,41.3-13.2,87.2-15.9,131c-3.7-0.3-7-1.5-10.4-3.1c0.9-40.7,11-82.9,11-123.9
		c0-57.2-8.9-115.1-1.2-172.3c7.3,4,16.5,5.5,23.3,2.1C708.3-29.9,702.7,25.1,697.9,80.8z"/>
	<path fill="#B21E06" d="M300.7,16.6c-2.1-0.3-4.3-0.6-6.4-0.9c-1.2,0-2.4-0.3-3.7-0.6c-0.3,0-0.6,0-0.9-0.3
		c4-28.2-0.3-59.1-14.4-78c-1.5-2.1-4.9-0.3-3.7,2.1c23.3,41.3,1.5,81.1-5.5,122.4c-0.6,3.4,3.7,5.2,5.5,2.4
		c8.3-11.3,14.1-27.2,16.8-44.1c3.7,1.5,9.5,1.5,11.6,1.5C303.7,20.9,303.7,16.9,300.7,16.6z"/>
	<path fill="#B21E06" d="M320.2,51.1c-15-38.9-11.3-74.7-3.4-114.8c0.3-2.1-2.8-3.1-3.4-0.9c-12.5,37-19.3,82.3,1.2,117.8
		C316.6,56.3,321.5,54.5,320.2,51.1z"/>
	<path fill="#B21E06" d="M343.2-42.2c-0.6-2.4-4.3-3.1-5.8-0.6c-13.2,22.9-15.6,52.3-13.8,78.3c0.3,2.8,4,2.8,4.3,0
		c0.3-5.2,0.6-10.4,1.2-15.6c0.6,0.3,0.9,0.6,1.8,0.3c4.3-2.1,8.3-4,12.2-6.4c0,0,0,0,0-0.3c0.3,8.3,1.2,16.5,3.1,24.5
		c0.6,2.8,5.2,2.1,4.9-0.6C349,11.1,350.2-16.5,343.2-42.2z M342,11.4c-4.3,1.8-8.6,4-12.9,6.1c1.5-16.8,3.7-33.7,10.1-49.3
		c3.1,14.4,3.1,28.8,3.7,43.5C342.6,11.1,342.3,11.1,342,11.4z"/>
	<path fill="#B21E06" d="M383.6,32.8c-4.6,0.6-9.2,1.2-13.8,2.4c-5.2-27.2-4.3-55.1-7-82.6c-0.3-2.4-4-2.4-4,0
		c0.6,29.4-0.6,58.8,4.6,87.8c0.3,1.8,2.8,3.1,4.6,2.4c5.8-1.8,11.6-2.1,16.8-5.2C387.3,36.5,386.3,32.5,383.6,32.8z"/>
	<path fill="#B21E06" d="M399.5,16c-5.8,1.8-10.4,2.8-16.2,1.8c-1.8-20.2-0.9-40.7-1.5-60.9c0-2.4-4-2.4-4,0
		c-0.6,21.1,0.3,43.1-1.8,64.3c-0.3,1.5,1.2,3.4,2.8,3.7c8.9,1.8,16.8,2.4,23.9-3.4C404.7,19,402.3,14.7,399.5,16z"/>
	<path fill="#B21E06" d="M451.8,8c-1.5-15.6-6.4-50.8-23.3-58.1c-2.8-1.2-6.1,1.5-4.3,4.3c8,12.5,13.2,24.8,16.8,39.2
		c3.4,14.4,8.6,42.5-6.1,52.9c-20.8,14.4-20.2-30.6-19.9-39.8c0.9-15.6,3.4-34,9.8-48.7c1.2-2.8-2.4-5.2-4.3-2.4
		C409.6-26,390,60.9,431.9,55.4C453.4,53,453.4,23.6,451.8,8z"/>
	<path fill="#B21E06" d="M508.7-56.6c-0.6-3.7-6.1-2.4-6.1,0.9c-0.6,34,7.6,66.4-0.3,99.8c-3.4-6.1-6.4-12.5-7.3-19.9
		c-0.6-4-6.4-3.4-7.3,0c-2.1,6.1-4.9,11.6-7.6,17.4c-7.6-29.7-10.4-60.3-19.3-89.4c-0.9-3.1-5.5-1.8-4.6,1.2
		c8.9,32.7,10.4,67,19.6,99.8c0.9,2.8,5.5,4,6.7,0.9c2.8-5.8,5.8-11.3,8.6-17.1c2.4,6.7,6.1,12.5,9.8,19.3c1.5,3.1,5.8,2.1,7-0.9
		C518.8,19.6,514.6-20.5,508.7-56.6z"/>
	<path fill="#B21E06" d="M537.5,26.4c-2.4,1.5-4.9,2.8-7.3,4.3c0-4.9-0.3-9.8-0.3-14.4c2.8-0.6,5.2-2.1,6.7-4.6
		c1.2-1.8-1.2-3.7-2.8-2.8c-1.5,0.6-2.8,1.2-4,1.8c0-12.2-0.3-24.5-0.9-36.7c3.7,0,7-0.6,9.8-3.1c2.1-1.8-0.3-4.6-2.4-4.3
		c-4,0.6-7.6,1.5-11.6,2.1c-3.1,0.3-3.1,4.6-0.3,4.9c-0.9,13.2-0.9,26.3-0.9,39.5c-1.2,0.9-1.2,2.8,0,3.7c0,7-0.3,14.1-0.3,20.8
		c0,3.7,4,4.3,6.4,2.4c4.3-3.4,8.3-4.6,11.9-8.6C543.3,28.8,540.6,24.8,537.5,26.4z"/>
	<path fill="#B21E06" d="M575.5,32.2c-5.5,1.2-10.7,2.1-15.9,3.7c0-3.7,0-7.3-0.3-11.3c4-0.3,7.7-1.2,10.1-4.6
		c1.2-1.8-0.3-4.3-2.4-3.1c-2.4,1.5-5.2,2.8-8,3.4c-0.3-15.3-0.3-30.6,0.9-45.9c4.9-1.2,9.8-0.3,15-0.9c2.4-0.3,2.4-4.3,0-4.6
		c-4.6-0.9-9.8-0.3-14.7,1.5c0.3-1.8,0.3-3.7,0.6-5.2c0.3-3.4-5.5-4.3-6.1-0.9c-4.6,25.7-3.1,51.7-3.1,77.4c0,3.4,3.4,4.6,5.8,3.4
		c7-3.4,14.1-2.1,20.2-7C580.7,36.2,579.1,31.6,575.5,32.2z"/>
	<path fill="#B21E06" d="M639.7-45.2c0.3-4-5.8-4.6-7-0.9c-7.7,24.8-3.4,51.7-2.8,77.4c-12.5-19.6-18.4-42.8-31.8-62.1
		c-2.1-3.1-8-2.4-7.7,2.1c1.2,13.2,1.5,26.3,1.8,39.8c0.3,8.3-2.1,22.6,2.4,29.7c0.9,1.2,2.8,1.2,3.7,0c4.3-6.4,2.1-17.7,2.1-25.1
		c0-9.2-0.3-18.7-0.9-27.8c10.4,19.6,16.5,41.6,31.2,59.1c2.4,3.1,6.7,0.3,7-2.8C640,13.8,637.9-15.6,639.7-45.2z"/>
	<path fill="#B21E06" d="M620.7,74.7c0-1.5-0.9-2.8-2.4-3.1c-6.4-1.8-15.6,7-20.8,10.1c-11,5.8-23.3,11.3-35.8,12.9
		c-2.1,0.3-2.8,1.8-2.8,3.4c-1.5,0.6-3.1,1.8-3.4,3.7c-1.2,9.8,0.3,19.6,0.3,29.7c-8.6-7-15.3-15.9-23.3-23.6
		c-0.3-0.3-0.9-0.6-1.5-0.6c-0.3-0.9-0.9-1.8-2.1-2.1c-17.4-3.1-36.1-0.3-53.5,0.6c-25.1,0.9-50.2,0.3-74.4-6.1c0-0.3,0-0.3,0-0.6
		c-0.6-2.8-4.9-3.4-6.1-0.9c-3.4,7.6-3.4,16.2-4.6,24.5c-1.2,7.6-2.8,15-4.6,22.6c-6.7-11.6-11.9-24.8-15-37.9
		c0.9-1.5,0.9-3.7-1.2-4c-16.2-2.1-31.8-4.6-47.7-8.3c-3.4-0.9-4.9,4.3-1.5,5.2c0.3,0,0.6,0.3,0.6,0.3
		c7.6,69.5,81.1,92.4,142.3,96.1c77.4,4.6,149-36.1,156.4-117.5c0-0.3,0-0.6,0-0.9C620.7,76.9,621,75.9,620.7,74.7z M474.8,185.8
		c-60,2.8-129.4-21.7-147.2-83.5c12.9,4,27.2,7.3,40.4,6.4c2.1,17.1,9.2,32.1,15.9,48c1.5,3.7,6.7,4.3,8.3,0
		c3.4-10.4,5.8-21.1,7.6-31.8c0.9-6.4,2.4-13.2,2.4-19.6c36.1,15.3,88.1,13.8,126.1,6.1c0,0.3,0.3,0.6,0.6,0.9
		c9.5,10.4,17.4,22.3,29.1,30.3c2.1,1.2,5.5,0,5.8-2.4c2.1-12.9,1.5-26.6,0-39.5v-0.3c11.6,0.3,22.6-3.1,33.4-7.6
		c2.8-1.2,7.6-3.1,12.2-5.5C593.2,153.7,543,182.7,474.8,185.8z"/>
</g>
</svg>
