<?xml version="1.0" encoding="utf-8"?>
<!-- Generator: Adobe Illustrator 18.1.0, SVG Export Plug-In . SVG Version: 6.00 Build 0)  -->
<svg version="1.1" id="Capa_1" xmlns="http://www.w3.org/2000/svg" xmlns:xlink="http://www.w3.org/1999/xlink" x="0px" y="0px"
	 viewBox="-19 -24 195 183.5" enable-background="new -19 -24 195 183.5" xml:space="preserve">
<circle fill="#CC740A" cx="77.5" cy="68.5" r="87"/>
<g>
	<path fill="#FFFFFF" d="M104.6,78.8c-3.7-7.9-7.7-15.7-12-23.3c-5.2-9.1-6.3-20-10.7-29.5c-2.3-4.7-6.6-6.7,0.1-5.8
		c2.5,0.4,6,0.2,8.4-0.4c9.4-2.1,16.8-6.3,23.1-13.3c0.8-0.9,0.4-2.7-1.1-2.5C99.2,5.5,88.3,3.7,75.2,2.9
		c-7.6-0.4-11.4,1.9-14.9,8.1C48.9,30.8,45,55.9,43.2,79c-16.1-0.2-38,7.8-24.4,25.9c11.2,15,41,13.6,57.8,13.7
		c16.4,0.1,41.8,2.6,53.7-10.8C144.7,91.7,117.6,80.2,104.6,78.8z M62.8,12.5c5.3-11.7,25.9-4,36-4.2c6.3-0.1,15.2-4.3,4.5,3.4
		c-8,5.8-18.5,6.9-27.9,4.3c-1.2-0.3-2.5,1-1.8,2.1c7.7,10.5,9.9,23.4,14.5,35.2c3.7,9.5,9.2,18.8,14.1,28.1
		c-18.9,6.9-38.6,11-56.7-0.5C49.8,57.6,52.8,34.5,62.8,12.5z M45.4,82.4c15.6,11.5,41.8,12.1,58,1.1c0.7,1.4,1.4,2.8,2.1,4.2
		c-17.4,12.1-42.8,9.5-60.9,1.2c-0.1-0.1-0.3-0.1-0.4-0.1C44.6,86.7,45,84.6,45.4,82.4z M112.3,113.5c-11.5,2.8-23.8,2.3-35.6,2.1
		c-13.2-0.1-26.2-0.4-39.1-3.6c-8.5-2.1-16.6-6.4-19.4-14.7c-4.6-13.5,15.8-17,25-17.7c-0.3,3.7-0.5,7.3-0.7,10.9
		c-0.1,0.7,1.3,0.9,1.4,0.2c0-0.2,0.1-0.3,0.1-0.5c11,14.7,51.3,10.8,63.5-0.2c0.1-0.1,0.1-0.1,0.1-0.2c0.8-0.2,1.5-1.1,1.1-2.1
		c-0.8-1.9-1.8-3.8-2.6-5.7c10.9,1.2,22.4,5,23.6,17C130.8,108.2,119.6,111.8,112.3,113.5z"/>
</g>
</svg>
