<?xml version="1.0" encoding="utf-8"?>
<!-- Generator: Adobe Illustrator 18.1.0, SVG Export Plug-In . SVG Version: 6.00 Build 0)  -->
<svg version="1.1" id="Capa_1" xmlns="http://www.w3.org/2000/svg" xmlns:xlink="http://www.w3.org/1999/xlink" x="0px" y="0px"
	 viewBox="213 -213.7 571.7 571.7" enable-background="new 213 -213.7 571.7 571.7" xml:space="preserve">
<g>
	<path fill="#F2680A" d="M763.5,101c-7-0.9-13.8-1.8-20.5-3.4c6.7-3.7,12.5-8.3,16.8-15.3c1.8-3.1,0.3-6.1-2.1-8
		c-4.9-3.7-9.5-7-14.1-10.1C766,47.7,764.1,13.8,755-12.2c-1.2-4-8.3-4.9-8.9,0c-3.7,24.5,15.3,58.4-16.5,70.7
		c-5.8,2.1-5.5,9.2,0,11.6c6.4,2.8,11.6,6.4,16.8,10.4c-5.5,6.4-12.9,9.8-21.1,12.9c-5.2,1.8-5.5,9.2,0,11c8.9,2.8,17.1,4.3,26,4.9
		c-134.9,122.4-265.6-46.2-410-26c1.8-87.8-10.1-176.6-19.6-263.5c70.1-37.9,167.4,30,230.1,53.9c49.6,19,153,35.8,176.3-30.6
		c3.4,25.7,19.3,59.1-2.8,79.3c-3.1,2.8-1.2,7.3,2.1,8.6c23.9,8.3,2.8,18.4,2.4,33c-0.3,11,8,15.6,17.4,18.4
		c3.1,0.9,4.6-3.4,2.1-4.9C725-37,765.7-61.5,737.5-76.2c19.3-24.2,4.9-57.2,0.9-85.7c-0.6-4.3-5.5-4.9-8.6-3.1
		c-0.3-5.8-8.6-7-11-1.2c-31.2,76.5-141.4,39.2-192.5,14.4c-33.4-16.2-63-36.1-99.5-44.1c-29.7-6.4-74.4-9.2-106.8,4.9
		c-0.6-4.3-0.9-8.6-1.5-12.5c-0.3-2.4-1.8-4-3.7-4.9c-6.7-8.6-25.1-5.8-31.2,1.8c-1.8,2.1-1.2,5.5,0.6,7c-1.8-1.2-4.9-0.3-5.2,2.4
		c-15.6,179,42.2,363.8-44.7,531.8c-2.8-1.2-5.5,2.4-4,4.9l0,0c1.5,2.8,4,5.8,6.7,8.3c0.3,0.6,0.9,0.9,1.2,1.5
		c0.6,0.6,1.2,0.9,1.8,0.6c10.1,7.3,24.2,11.6,33,3.7c1.8-1.5,1.5-4.9-0.3-6.4c43.5-45.9,56.3-135.6,63.3-194
		c2.4-19.6,3.7-39.5,4.6-59.4c89.4-8.9,159.7,46.5,248.5,70.7c66.7,18.1,134.3,1.5,176.3-54.8c0.6-0.6,0.6-1.5,0.9-2.1
		C768.7,105.6,767.5,101.6,763.5,101z M329,85.7c-9.5,2.1-19,4.9-28.5,8.9c2.4-83.2-5.5-168.3-11.3-248.5c0.9,0.3,2.1,0,3.1-1.2
		c5.5-6.7,11.6-12.5,17.7-17.1C317.7-86.3,329-0.9,329,85.7z M288.9-198.3c3.1-0.9,5.8-2.4,9.2-3.1c3.4-0.3,6.4,0.9,9.5,2.1
		c0.3,5.2,0.9,10.1,1.2,15.3c-8.3,5.2-15.3,12.2-20.5,20.8c-0.9-11.3-1.5-22.3-2.1-33.4c0-0.9-0.6-1.8-0.9-2.1
		C286.5-198,287.4-197.7,288.9-198.3z M266.3,346.4c-4.6,0-8.9,0.3-13.5-0.9c-2.8-0.9-5.2-2.1-7.6-3.7c0-0.3,0.3-0.3,0.6-0.6
		c37.6-73.1,51.7-154.8,54.8-238.7c9.8-3.1,19.6-5.5,28.8-6.7C328.1,170.1,314.3,284.6,266.3,346.4z"/>
	<path fill="#F2680A" d="M240,348.8L240,348.8"/>
	<path fill="#F2680A" d="M607.5,1.5c-0.9-0.3-2.1-0.6-3.1-0.9c11.6-10.1,17.1-24.5,1.5-34.3c-0.6-2.8-4-4.6-7-2.1
		c-20.2,15.6-37.6,21.1-48.7-6.4c-4-9.8-6.4-20.2-9.5-30.3c-5.8-19.9-14.1-34.6-30.9-47.1C466.1-153,412.6-107.7,396-68.2
		C352.6,35.5,511.4,105,587.9,57.5c0.6,0.3,1.2,0.3,1.5-0.3c14.7-9.2,22-27.5,8.6-33c4.3-4.6,7.6-10.1,11.6-15.9
		C612.1,6.1,610.5,2.1,607.5,1.5z M590.6,50.8c-0.9-0.6-2.1-0.6-3.4,0c-51.1,25.4-111.4,12.9-153.6-23.9
		c-52.9-45.9-33.4-139.5,41.9-145.7C530.7-123,528.8-56,548.4-23c13.5,22.9,37.3,11.6,52.3-2.8c12.5,9.8-0.3,18.7-7.6,23.3
		c-2.8,1.8-3.1,6.1,0,8c2.1,1.2,4,2.1,5.8,3.1c-4,5.8-7.7,11.3-14.4,14.7c-4.6,2.1-2.1,9.5,2.4,9.2
		C602.9,32.1,597.1,43.1,590.6,50.8z"/>
	<path fill="#F2680A" d="M433.4-71.3c0-1.2-0.6-2.4-1.8-1.8l0,0c-0.6-0.6-1.2-1.2-2.1-1.5c-3.4-1.8-7,2.4-4.6,5.2
		c-18.7,15.3-13.5,60.9,13.8,61.8C470.4-6.4,448.7-56,433.4-71.3z M443.8-15.9c-13.2,8.9-21.1-10.4-22.3-19.9s0.6-21.7,6.7-30
		C438.3-53.9,456.9-24.8,443.8-15.9z"/>
	<path fill="#F2680A" d="M498.5-72.8c-7.3-9.8-29.1-24.5-41.9-19.3c-2.8,0.9-4,5.2-0.9,6.7c4,1.8,8.3,1.8,12.2,3.1
		c5.8,1.5,10.7,4.6,15.6,7.6c11.6,8,19,23.3,7.6,34.9c-7.6,7.6-20.2-4.6-25.1-9.8c-7.7-8.3-13.8-19.3-15-30.6
		c-0.3-3.1-4.9-3.1-4.9,0c-0.6,19,26.3,63.6,49.6,46.2C508.9-43.2,507.4-61.5,498.5-72.8z"/>
	<path fill="#F2680A" d="M527.9-6.7c-9.5-13.2-32.7-13.2-46.8-10.1c-17.7,3.7-25.4,17.4-21.4,33c-2.1,0-4.3,2.1-2.8,4.6
		c3.1,4.6,11.3,14.7,17.4,7.6c1.8-2.4,2.1-5.8,2.8-8.9c1.2-8.3,5.5-8,13.2-7.6C499.1,12.5,543.8,15.6,527.9-6.7z M504.7,5.2
		c-8.3-0.3-16.5-1.8-24.8-0.9c-4,0.6-7,2.8-8.6,6.7c-0.9,2.8-1.5,5.5-1.8,8.3s-1.5,2.8-3.1,1.8v-0.3c-4.9-16.5,1.5-27.5,18.4-30.6
		c11-2.1,27.2-0.6,35.8,7.3C529.1,4.9,508.3,5.2,504.7,5.2z"/>
</g>
</svg>
