<?xml version="1.0" encoding="utf-8"?>
<!-- Generator: Adobe Illustrator 18.1.0, SVG Export Plug-In . SVG Version: 6.00 Build 0)  -->
<svg version="1.1" id="Capa_1" xmlns="http://www.w3.org/2000/svg" xmlns:xlink="http://www.w3.org/1999/xlink" x="0px" y="0px"
	 viewBox="-19 -19 180 180" enable-background="new -19 -19 180 180" xml:space="preserve">
<circle fill="#CC740A" cx="71.5" cy="71" r="87"/>
<g>
	<g>
		<path fill="#FFFFFF" d="M144,67.7c-5-33.3-32.8-56.2-62.3-41.4c-3.5-6.8-3.8-17.1,2.6-22.2c0.6-0.5,1-1.6,0.2-2.2
			C72-9,62.1,14.3,61.8,26.4C47.1,2.2,8.1,32.3,2,52.1C-6.9,80.8,8.4,123,39.8,124c10,11.6,37.1,8.9,51-0.5
			C119.3,126.9,148.7,99.3,144,67.7z M63.5,28.7C63.3,20.9,71.1-4,81.4,2.8c-6.1,5.8-7,17.8-2.2,24.7c-0.5,0.2-0.9,0.5-1.5,0.8
			c-0.6,0.4-0.8,1-0.7,1.6c-4.5-1-9-1.2-13.6-0.6c0-0.1-0.1-0.1-0.1-0.2C63.4,29,63.5,28.9,63.5,28.7z M93.3,121.6
			c2.1-1.7,3.8-3.7,4.8-5.6c0.5-1-0.7-2.1-1.5-1.2C87,125.5,56,135.2,43,123.9c0.9-0.2,0.9-1.7-0.2-1.8c-0.5,0-1.2-0.1-1.7-0.2
			c-1.9-2.3-3.2-5.2-3.8-8.9c-0.2-0.8-1.3-0.6-1.3,0.2c0,3.2,0.8,6,2.1,8.3C12.8,117.5,1.4,89.9,2.7,64.1
			c0.8-15.2,8.2-25.8,19.7-34.3c12.1-9.1,29.3-14.3,39.5-0.4c-2.9,0.6-5.8,1.4-8.5,2.3c-0.9,0.3-0.5,1.8,0.4,1.6
			c12.9-3.7,22.4-1.5,34.4,3.9c1.2,0.5,2.1-1.1,1-1.8c-2.9-2.1-6-3.6-9.2-4.6c28.2-16.2,53.6,3.3,60.7,34
			C147.8,95.4,120.1,120.9,93.3,121.6z"/>
		<path fill="#FFFFFF" d="M61.7,48.7c-8.9,0.6-17.6,1.8-26.5,0.8c-0.7-0.1-0.9,0.9-0.5,1.2c-0.4,0.3-0.6,0.8-0.4,1.5
			c3,8.4,6.1,17,9.7,25.2c0.5,1.1,2.1,1,2.6,0C51.2,68,57.5,59.8,62.9,51C63.4,50.1,62.7,48.6,61.7,48.7z M37.1,51.5
			c0-0.1-0.1-0.2-0.2-0.2c7.4,1.1,14.7,0.3,22.2,0.4c-4.6,7.1-9.5,13.9-13.5,21.5C42.5,66,39.9,58.7,37.1,51.5z"/>
		<path fill="#FFFFFF" d="M107.5,48.8c-8.1-1-16.3,3.7-24.3,1.4c-0.5-0.2-0.9,0.4-0.6,0.8c1.6,2.9,6.7,2,9.1,1.8
			c4.6-0.4,9.3-1.6,13.9-1.3c-2.5,8.1-5.7,15.9-9.2,23.6c-6-6.4-11.3-14.6-13.7-23c-0.5-1.5-2.7-0.9-2.3,0.6
			c2.7,9.7,8.5,19.1,15.4,26.1c0.6,0.6,1.9,0.6,2.3-0.3c4.2-9,8.1-18.2,10.8-27.8C109.2,49.7,108.4,48.9,107.5,48.8z"/>
		<path fill="#FFFFFF" d="M80.1,84c-2.7-5.1-5.1-10.5-9-14.7c-0.5-0.6-1.3-0.3-1.7,0.2c-3,4.2-5.7,8.9-8.3,13.4
			c-0.2,0.2-0.1,0.4,0,0.6c-0.7,0.4-0.9,1.7-0.1,2.3c4.8,3.6,12.6,0.5,17.9,0.2C80,86.1,80.7,85,80.1,84z M62.1,83.6
			c3-3.6,5.5-7.6,8.2-11.4c2.7,3.4,4.6,7.4,6.5,11.3C71.9,83.9,67.2,85,62.1,83.6z"/>
		<path fill="#FFFFFF" d="M123.2,85.1c-0.1,0.2-0.2,0.2-0.2,0.4c-16,7.2-31.9,8-49,9.2c-0.1,0-0.1,0-0.1,0.1
			c-0.9-0.2-1.9,0.5-1.7,1.7c0.6,3.1,0.5,6.3,0.5,9.4c-4.1-1.3-8.5-1.9-12.7-3.4c-0.2-2-0.2-4.1-0.5-6.1c0.5-0.6,0.4-1.7-0.4-2
			c-0.2-0.1-0.3-0.2-0.5-0.1C45.1,93.7,31.6,91,22,80.5c-0.1-0.2-0.2-0.5-0.3-0.8c-0.2-0.4-0.5-0.5-0.8-0.5
			c-0.4-0.4-0.7-0.8-1.1-1.3c-0.3-0.5-1.1,0.2-0.8,0.6c0.5,0.8,0.9,1.4,1.5,2.2c13.1,44.6,85.7,45.2,105,5.8
			C126.2,85,124.1,83.6,123.2,85.1z M23.7,84.4c8.9,8.9,21.7,11.6,34.1,12.3c-0.2,2.2-0.2,4.4-0.5,6.6c-0.1,0.6,0,1.3,0.6,1.7
			c4.9,2.3,10.5,2.5,15.6,4.5c0.9,0.3,1.8-0.5,1.8-1.4c0-3.8,0.4-7.8-0.5-11.5c14.3,0.9,32,1,45.3-6.3
			C98.2,121.2,41.2,119.3,23.7,84.4z"/>
	</g>
</g>
</svg>
