<?xml version="1.0" encoding="utf-8"?>
<!-- Generator: Adobe Illustrator 18.1.0, SVG Export Plug-In . SVG Version: 6.00 Build 0)  -->
<svg version="1.1" id="Capa_1" xmlns="http://www.w3.org/2000/svg" xmlns:xlink="http://www.w3.org/1999/xlink" x="0px" y="0px"
	 viewBox="210 -211.7 566.7 566.7" enable-background="new 210 -211.7 566.7 566.7" xml:space="preserve">
<g>
	<g>
		<path fill="#F2680A" d="M774.8,80.3c-19.6-123-128.2-207.5-243.6-153c-13.5-25.1-15-63.3,10.1-82c2.4-1.8,4-5.8,0.9-8
			c-49-40.4-87.5,45.9-88.7,90.3C396-161.7,243.6-50.6,219.7,22.5c-34.6,106.2,25.1,261.9,147.8,265.6c38.9,42.8,145,32.7,199.5-1.8
			C678.4,298.8,793.2,196.9,774.8,80.3z M460.2-63.8c-0.9-28.8,29.7-120.6,69.8-95.5c-23.9,21.4-27.5,65.8-8.6,91.2
			c-1.8,0.9-3.7,1.8-5.8,3.1c-2.4,1.5-3.1,3.7-2.8,5.8c-17.4-3.7-35.2-4.3-53.2-2.4c0-0.3-0.3-0.3-0.3-0.6
			C459.9-62.6,460.2-62.9,460.2-63.8z M576.8,279.5c8.3-6.4,14.7-13.5,18.7-20.8c2.1-3.7-2.8-7.6-5.8-4.6
			c-37.9,39.5-158.8,75.6-209.6,33.7c3.7-0.9,3.7-6.4-0.6-6.7c-2.1,0-4.6-0.3-6.7-0.6c-7.3-8.6-12.5-19.3-14.7-32.7
			c-0.6-3.1-5.2-2.1-5.2,0.6c0,11.9,3.1,22,8.3,30.6c-99.1-15-143.8-116.9-138.6-212.1c3.1-56,32.1-95.2,76.8-126.7
			c47.4-33.7,114.4-52.9,154.5-1.5c-11.3,2.4-22.6,5.2-33.4,8.6c-3.7,1.2-2.1,6.7,1.5,5.8c50.5-13.5,87.5-5.5,134.6,14.4
			c4.6,1.8,8.3-4,4-6.7C549.3-47,537-52.5,524.5-56.2c110.2-60,209.3,12.2,237.1,125.5C789.8,182.5,681.5,276.8,576.8,279.5z"/>
		<path fill="#F2680A" d="M453.2,10.2c-34.6,2.1-68.9,6.7-103.4,2.8c-2.8-0.3-3.4,3.4-1.8,4.6c-1.5,1.2-2.4,3.1-1.5,5.5
			c11.9,31.2,23.9,62.7,37.9,93c1.8,4,8.3,3.7,10.1,0c17.7-34.6,42.2-64.9,63.3-97.6C459.9,15.1,457.2,9.9,453.2,10.2z M356.8,20.3
			c0-0.3-0.3-0.6-0.6-0.9c28.8,4,57.5,1.2,86.6,1.5c-18.1,26.3-37.3,51.4-52.9,79.3C378.2,73.9,367.8,47,356.8,20.3z"/>
		<path fill="#F2680A" d="M632.2,10.6c-31.5-3.7-63.6,13.5-94.9,5.2c-1.8-0.6-3.4,1.5-2.4,3.1c6.1,10.7,26,7.3,35.5,6.7
			c18.1-1.5,36.4-5.8,54.5-4.9c-9.8,30-22.3,58.8-36.1,87.2c-23.3-23.6-44.1-53.9-53.5-85.1c-1.8-5.5-10.4-3.4-8.9,2.4
			c10.4,35.8,33.4,70.7,60,96.4c2.4,2.4,7.3,2.1,8.9-1.2c16.5-33.4,31.5-67.3,42.2-102.8C638.6,13.6,635.6,10.9,632.2,10.6z"/>
		<path fill="#F2680A" d="M525.1,140.6c-10.7-19-19.9-38.6-35.2-54.2c-2.1-2.1-5.2-1.2-6.7,0.9c-11.9,15.6-22.3,32.7-32.4,49.6
			c-0.6,0.6-0.3,1.5,0,2.1c-2.8,1.5-3.7,6.1-0.3,8.6c18.7,13.2,49.3,1.8,70.1,0.9C524.5,148.3,527.2,144.3,525.1,140.6z
			 M454.7,138.8c11.6-13.2,21.4-28.2,32.1-42.2c10.4,12.5,18.1,27.2,25.4,41.9C493,140,474.6,144.3,454.7,138.8z"/>
		<path fill="#F2680A" d="M693.4,144.6c-0.3,0.6-0.6,0.9-0.9,1.5c-62.4,26.6-124.8,29.4-191.6,34c-0.3,0-0.3,0-0.3,0.3
			c-3.4-0.9-7.6,1.8-6.7,6.1c2.4,11.6,2.1,23.3,1.8,34.9c-16.2-4.9-33.4-7-49.6-12.5c-0.9-7.3-0.9-15-1.8-22.6
			c1.8-2.1,1.5-6.1-1.5-7.3c-0.6-0.3-1.2-0.6-1.8-0.3c-52.9-2.4-105.6-12.5-143.2-51.1c-0.3-0.9-0.9-1.8-1.2-3.1
			c-0.6-1.5-1.8-1.8-3.1-1.8c-1.5-1.5-2.8-3.1-4.3-4.9c-1.2-1.8-4.3,0.6-3.1,2.4c1.8,2.8,3.7,5.2,5.8,8
			C343,293,627,295.1,702.3,149.8C705.3,144,696.8,138.8,693.4,144.6z M304.5,142.1c34.9,33,84.8,42.8,133.1,45.3
			c-0.6,8-0.6,16.2-1.8,24.2c-0.3,2.1,0,4.9,2.4,6.1c19.3,8.6,41,9.2,60.9,16.5c3.4,1.2,7-1.8,7-5.2c0-14.1,1.5-28.8-1.8-42.5
			c55.7,3.4,125.2,3.7,176.9-23.3C595.8,278,373,271,304.5,142.1z"/>
	</g>
</g>
</svg>
