<?xml version="1.0" encoding="utf-8"?>
<!-- Generator: Adobe Illustrator 18.1.0, SVG Export Plug-In . SVG Version: 6.00 Build 0)  -->
<svg version="1.1" id="Capa_1" xmlns="http://www.w3.org/2000/svg" xmlns:xlink="http://www.w3.org/1999/xlink" x="0px" y="0px"
	 viewBox="-21 -20 185 185" enable-background="new -21 -20 185 185" xml:space="preserve">
<circle fill="#CC740A" cx="72.5" cy="72.5" r="87"/>
<g>
	<g>
		<path fill="#FFFFFF" d="M140.2,59.7c-0.2-8.1-1-21-9.9-24.5c-0.1-0.1-0.2-0.1-0.3-0.1l0,0c1.1,0,1.8-1.6,0.7-2.2
			c-6-3.4-13.9-4-20.7-4.9c-11.1-1.4-22.4-2.2-33.5-3.7c-19.7-2.7-38-12.9-58.3-8.2c-0.6,0.1-1.1,0.7-1,1.4
			c1.5,26.3,7.8,52,8.7,78.3c-0.2,0.6,0.1,1.2,0.9,1.2c11.3,9.5,29.7,9.5,43.3,4.8c-1.5,11.3-1.6,22.7-2.5,34.1
			c-0.1,0.4,0.3,1,0.7,1.2c5,2.4,10,1.4,15.2,0.1c0.6-0.1,1.1-0.8,1-1.4c-1.2-10.7-2.8-21.3-3.4-32c18.6,1.3,37.2,3.8,55.8,2.9
			c0.9-0.1,1.6-0.9,1.4-1.8c0.4-0.1,0.7-0.4,0.7-0.8C138,89.5,140.6,74.5,140.2,59.7z M23,45.7c-0.4-2.3-5.3-26.5-1.2-27.4
			c9.2-2.2,19.5,0.4,28.5,2.5c12.5,2.9,24.4,6.5,37.2,7.9c13.6,1.4,26.8,3.1,40.2,6.1c-0.1,0.1-0.1,0.3-0.1,0.4
			c-1,10.9-0.7,22.4-0.7,33.4c-0.1,9.4,0.3,19.2,3.4,28.1C97.9,87.2,60.3,90.9,27.6,95C27.7,78.4,25.3,62.1,23,45.7z M124.7,104.2
			c-5.5-0.1-11-0.5-16.5-0.9c-9-0.7-18.1-1.2-27.2-1c-0.1-0.9-0.1-1.9-0.1-2.8c0-0.1-0.1-0.3-0.1-0.4c0.7-0.1,0.9-0.9,0.4-1.4
			c-0.9-1-2.4-1-3.7-1.2c-1.7-0.3-3.4-0.5-5-1.1c-0.7-0.3-1,0.8-0.4,1.1c1.2,0.7,2.6,1,4,1.4c0.8,0.2,1.6,0.5,2.3,0.8
			c-0.2,0.2-0.3,0.5-0.3,0.9c0,6.6,0.7,13.1,1.4,19.6c0.5,4.2,4.2,15.2-1.2,16.3c-10.9,2.2-7.2-10.7-6.9-17.4
			c0.3-6.9,0.4-13.9,0.4-20.8c0-0.6-1-0.8-1.1-0.1c-0.1,0.9-0.3,1.8-0.4,2.7c-0.1,0-0.1-0.1-0.2-0.1c-14.4,0.3-27.9,5.2-40.9-2.9
			c15.6-1.1,31.3-2.3,47-2.6c17.8-0.3,35,2,52.6,4.7c0.1,0.2,0.2,0.4,0.4,0.5C138.5,106.6,128.6,104.2,124.7,104.2z M133,99.1
			L133,99.1c0.5-0.5,0.5-1.6-0.4-1.8h-0.1c-5.5-19.5,0.8-39.6-2.1-59.1c8.3,7.8,7.2,21.6,7,32.2c-0.3,10.9-1.7,22.1-0.3,33
			C135.9,101.7,134.6,100.4,133,99.1z"/>
		<path fill="#FFFFFF" d="M119.3,57.3c-1.5-2-3.9-3-6.3-2.4c-3.1,0.8-4.8,3.9-6,6.6c-0.1-0.1-0.2-0.2-0.3-0.3c-1-0.3-2-0.3-3-0.6
			c-1.2-0.3-2.2-0.8-3.3-1.3c0.4-2,0.6-4.1,0.2-6.4c-2-11.5-13.5-20.5-25-20.6c-8.9-0.1-17.3,5.6-20.7,13.7
			c-1.1-0.9-2.3-1.7-3.4-2.5c-0.3-0.3-1-0.7-1.4-1.1c0-0.1,0.1-0.2,0.1-0.3c0.1-3.5-0.7-7.5-3.9-9.6c-2.2-1.5-5.2-1-7.4,0.2
			c-2.3,1.4-3.9,3.9-4.2,6.5c-0.3,3.1,1.7,5.7,4,7.6c-2.5,2.5-6.1,7.2-2.3,9.6c3.9,2.5,8.4-1.7,10.5-4.6c1.7,1.1,4.2,1.4,6.4,1.4
			c-0.3,9.4,6.1,15.8,15,16.7c-1.2,2.9-2.5,7.1-0.5,8.9c2.4,2.3,5.5-0.5,7.6-2.7c1,2.8,2.7,6.5,5.4,6.5c2.9,0.1,3.8-3.3,4.2-5.9
			c1.8,0.7,3.6,1.4,5.2,2.6c0.8,0.6,1.8,0.4,2.1-0.6c1.6-4.4,0.6-6.9-1.8-9.7c1.7-0.4,3.3-1,4.6-2c0.1,0.1,0.1,0.1,0.1,0.2
			c1.6,1.5,4,1.7,5.9,2.7c1.2,0.6,2.2-1.2,1-1.8c-1-0.4-2-0.8-3.1-1c-0.9-0.2-2-0.4-2.7-1c0,0-0.1,0-0.1-0.1
			c1.6-1.4,2.8-3.3,3.6-5.3c2,1.1,4.5,2.5,6.6,2.1v0.1c-0.5,1.4,1.8,2.1,2.3,0.7c0.8-2.3,2.1-5.4,4.6-6.3c1.6-0.5,3,0.3,4,1.5
			c1.1,1.4,1.3,3.4,0.8,5c-0.9,2.8-3.7,4.4-6.3,5.3c-0.4,0.2-0.9,0.6-0.9,1.2c0.1,1.9,0.1,4.2-1.4,5.6c-0.9,0.8-2.4,0.7-3.4,0.2
			c-1.1-0.4-2.2-1.4-2.5-2.5c-0.2-0.6-0.1-1.2,0.1-1.8c0.1-0.4,0.5-0.7,0.6-1.1c0.1-0.1-0.1-0.6,0-0.7c0.3-0.3,0.6-0.5,0.9-0.8
			c0.2-0.1,0-0.4-0.2-0.3c-0.3,0.2-0.6,0.3-0.9,0.5c-0.3,0.2-0.6,0.1-0.9,0.1c-0.5,0.1-1,0.9-1.3,1.2c-0.6,0.9-0.8,2-0.7,2.9
			c0.3,2,1.8,3.5,3.6,4.3c1.8,0.9,4.1,1,5.9-0.2c2.2-1.5,2.7-4.4,2.7-6.9c3.1-1.3,5.7-3.3,6.9-6.5C121.3,62.2,120.9,59.3,119.3,57.3
			z M53.6,51.5c0,0.1,0,0.2,0,0.3c-2.2-0.4-4.3-1.2-6.4-2.3c-0.8-0.4-1.8,0.4-1.2,1.2c0.1,0.1,0.2,0.3,0.3,0.4
			c-1.8,2-5.3,5.4-8.3,3.9c-3.3-1.6,2.6-6.6,3.7-7.4c0.7-0.5,0.3-1.5-0.3-1.9c-2.1-1.5-4.1-3.4-4-6.2c0.1-1.8,1.3-3.5,2.8-4.5
			c1.4-0.9,3.3-1.3,4.8-0.4c2.5,1.4,2.7,5,2.8,7.5c0,0.5,0.3,0.9,0.7,1c0.3,0.6,0.8,1,1.3,1.4c1.5,1,3.2,1.9,4.7,2.8
			C54,48.7,53.7,50.1,53.6,51.5z M96.8,61.5c-2.4,4.8-8.4,4.4-12.9,5.3c-1.2,0.2-1.1,2.1,0,2.3c1.2,0.3,2.4,0.4,3.6,0.4
			c2.3,2.3,3.6,4,3,7c-1.8-1-3.8-1.8-5.7-2.6c-0.7-0.3-1.8-0.1-1.9,0.8c-0.3,1.8-0.5,3.5-1.4,5.1c-0.9,1.8-4.5-6.5-4.4-6.3
			c-0.3-0.9-1.4-1.4-2.2-0.6c-0.9,1-5.3,6.5-5.7,3.1c-0.2-2,0.3-4,0.9-5.9c0.7,0,1.4,0,2.2-0.1c1.1-0.1,1.2-1.7,0-1.8
			c-0.5,0-1-0.1-1.6-0.1c0.2-0.9-1.2-1.2-1.5-0.3c0,0.1-0.1,0.1-0.1,0.1c-7.6-1.6-13.1-6.2-12.8-15c0.2-0.2,0.2-0.4,0-0.7
			c0.7-10,9.9-16.6,19.3-17c9.4-0.4,17.7,6.9,21,15.2C98.1,54,98.5,58.1,96.8,61.5z"/>
		<path fill="#FFFFFF" d="M80.2,44.5c-0.4-0.3-0.9-0.3-1.2-0.1c-0.1-0.6-0.9-0.9-1.2-0.3c-1.2,2-2,4.1-2.3,6.2
			c-0.1-2.8-0.9-5.7-1.9-7.7c-0.7-1.3-2.5-0.3-2.3,1c0.7,3.3,2,6.7,1.3,10c-0.1,0.4-0.3,1.2-0.4,1.4c-0.1,0.2-0.2,0.4-0.3,0.7
			c-0.1,0.1-0.1,0.2-0.2,0.3c0,0-0.1,0.2-0.2,0.3c-0.1,0.1-0.3,0.3-0.4,0.4c-0.1,0.1-0.3,0.3-0.4,0.3c-0.1,0.1-0.3,0.2-0.4,0.3
			c-0.1,0.1-0.2,0.1-0.3,0.1c-0.1,0.1-0.1,0.1-0.1,0.1c0,0,0,0-0.1,0c-1,0.4-1.2,0.4-2.2,0.3c-0.1,0-0.2,0-0.3,0l0,0l0,0
			c-0.2,0-0.4-0.1-0.6-0.1c-0.2-0.1-0.4-0.1-0.6-0.2c-0.4-0.1-0.1,0-0.4-0.2c-1.4-0.7-2.3-1.6-2.5-3.1c0-0.1,0-0.1,0-0.1s0,0,0-0.1
			c0-0.2,0-0.3,0-0.5c0-0.3,0-0.3,0-0.3c0-0.2,0.1-0.4,0.1-0.6c0.2-0.9,0.6-1.5,1.1-2.2c1.5-2.2,3.9-3.9,6.1-5.3
			c0.8-0.5,0.1-1.6-0.7-1.2C65.6,45.9,59,50.4,61,56c1.3,3.6,5.7,5.4,9.3,4.2c3-1,4.4-3.5,5-6.4c0.4,5.5,4.1,10.2,11.3,9.7
			c0.6-0.1,1.1-0.4,1.2-1C90.1,55,86.6,48.4,80.2,44.5z M78.3,46.3c0.1,0.2,0.3,0.4,0.4,0.6c5.1,3.3,7.9,8,6.6,13.9
			C77.2,60.9,75.9,52.9,78.3,46.3z"/>
	</g>
</g>
</svg>
