<?xml version="1.0" encoding="utf-8"?>
<!-- Generator: Adobe Illustrator 18.1.0, SVG Export Plug-In . SVG Version: 6.00 Build 0)  -->
<svg version="1.1" id="Capa_1" xmlns="http://www.w3.org/2000/svg" xmlns:xlink="http://www.w3.org/1999/xlink" x="0px" y="0px"
	 viewBox="217 -218.9 580.9 580.9" enable-background="new 217 -218.9 580.9 580.9" xml:space="preserve">
<g>
	<g>
		<path fill="#F2680A" d="M796.2-8.7c-0.9-37.9-4.9-98.8-46.5-115.1c-0.6-0.3-0.9-0.3-1.5-0.3l0,0c5.2,0,8.3-7.3,3.1-10.4
			c-28.2-16.2-65.2-19-97-23c-52.3-6.4-105-10.4-157.3-17.4c-92.7-12.5-178.4-60.6-273.6-38.3c-2.8,0.6-5.2,3.4-4.9,6.4
			c7,123.3,36.7,244.2,41,367.8c-0.9,2.8,0.3,5.8,4,5.5c53.2,44.7,139.5,44.7,203.5,22.6c-7,52.9-7.3,106.8-11.9,160
			c-0.3,2.1,1.5,4.9,3.4,5.8c23.3,11.3,47.1,6.4,71.3,0.6c2.8-0.6,5.2-3.7,4.9-6.7c-5.5-50.2-13.2-100.1-15.9-150.2
			c87.2,6.1,174.7,17.7,262.2,13.8c4.3-0.3,7.7-4.3,6.4-8.3c1.8-0.3,3.1-1.8,3.1-3.7C786.1,131.2,798.1,61.1,796.2-8.7z M245.7-74.5
			c-1.8-10.7-24.8-124.5-5.8-128.8c43.1-10.1,91.8,2.1,134,11.6c58.8,13.5,114.4,30.6,174.7,37c64,6.7,126.1,14.7,188.8,28.8
			c-0.3,0.6-0.6,1.2-0.6,1.8c-4.6,51.4-3.1,105-3.4,156.7c-0.3,44.1,1.5,90.3,15.9,132.2c-151.5-44.4-328-26.9-482-7.6
			C267.8,79.2,256.5,2.7,245.7-74.5z M723.7,200.6c-26-0.3-51.7-2.4-77.7-4.3c-42.5-3.1-85.1-5.8-127.9-4.6
			c-0.3-4.3-0.3-8.9-0.6-13.2c0-0.6-0.3-1.2-0.3-1.8c3.1-0.3,4.3-4.3,2.1-6.4c-4.3-4.6-11.3-4.9-17.4-5.8c-8-1.2-15.9-2.4-23.3-5.2
			c-3.1-1.2-4.9,3.7-2.1,5.2c5.8,3.1,12.2,4.9,18.7,6.4c3.7,0.9,7.3,2.4,11,3.7c-0.9,0.9-1.5,2.4-1.5,4c0,30.9,3.1,61.5,6.7,92.1
			c2.4,19.9,19.9,71.3-5.5,76.5c-51.4,10.1-33.7-50.2-32.4-81.7c1.2-32.4,1.8-65.2,1.8-97.9c0-2.8-4.6-3.7-5.2-0.6
			c-0.6,4.3-1.2,8.6-1.8,12.5c-0.3,0-0.6-0.3-0.9-0.3c-67.6,1.2-131,24.5-191.9-13.8c73.4-5.2,146.9-11,220.6-12.2
			c83.8-1.2,164.6,9.5,246.9,22.3c0.3,0.9,0.9,1.8,1.8,2.4C788.3,211.7,742.1,200.6,723.7,200.6z M762.6,176.5L762.6,176.5
			c2.4-2.4,2.4-7.3-2.1-8.6h-0.3c-26-91.5,3.7-186-9.8-277.5c39.2,36.7,34,101.3,32.7,151.2c-1.2,51.4-8,103.7-1.2,154.8
			C776.3,188.7,769.9,182.6,762.6,176.5z"/>
		<path fill="#F2680A" d="M698.3-20c-7-9.2-18.4-14.1-29.7-11.3c-14.4,3.7-22.6,18.1-28.2,31.2c-0.3-0.6-0.9-0.9-1.5-1.2
			c-4.6-1.5-9.5-1.5-14.1-2.8c-5.5-1.5-10.4-3.7-15.6-6.1c2.1-9.2,2.8-19.3,0.9-30c-9.5-54.2-63.6-96.1-117.2-96.7
			c-41.9-0.6-81.1,26.3-97,64.3c-5.2-4-10.7-8-16.2-11.6c-1.5-1.2-4.6-3.1-6.4-5.2c0-0.6,0.3-0.9,0.3-1.5c0.3-16.5-3.4-35.2-18.1-45
			c-10.4-7-24.2-4.9-34.6,0.9c-11,6.4-18.4,18.1-19.6,30.6c-1.2,14.4,8,26.9,18.7,35.5c-11.9,11.6-28.8,33.7-11,45.3
			c18.1,11.6,39.5-8,49.3-21.7c8,5.2,19.6,6.4,30,6.4c-1.2,44.1,28.8,74.4,70.4,78.3c-5.5,13.8-11.6,33.4-2.4,41.9
			c11.3,10.7,26-2.4,35.8-12.9c4.9,13.2,12.9,30.3,25.4,30.6c13.8,0.3,17.7-15.6,19.9-27.8c8.3,3.4,17.1,6.7,24.2,12.2
			c3.7,2.8,8.3,1.8,9.8-2.8c7.7-20.8,2.8-32.4-8.6-45.6c8-1.8,15.3-4.9,21.7-9.5c0.3,0.3,0.3,0.6,0.6,0.9c7.3,7,19,8,27.8,12.5
			c5.5,2.8,10.4-5.8,4.9-8.3c-4.6-2.1-9.5-3.7-14.4-4.9c-4.3-0.9-9.2-1.8-12.9-4.6c0,0-0.3,0-0.3-0.3c7.6-6.7,13.2-15.3,16.8-25.1
			c9.2,5.2,21.1,11.9,30.9,9.8V6c-2.4,6.7,8.6,9.8,10.7,3.1c3.7-11,9.8-25.4,21.7-29.4c7.3-2.4,14.1,1.2,18.7,7
			c5.2,6.4,6.1,15.9,3.7,23.6c-4,13.2-17.4,20.8-29.4,25.1c-2.1,0.9-4.3,2.8-4,5.5c0.6,8.9,0.6,19.9-6.7,26.3
			c-4.3,3.7-11.3,3.1-16.2,0.9c-5.2-2.1-10.4-6.4-11.9-11.9c-0.9-2.8-0.3-5.5,0.6-8.3c0.6-1.8,2.4-3.4,2.8-5.2
			c0.3-0.6-0.3-2.8,0-3.1c1.2-1.2,2.8-2.4,4.3-3.7c0.9-0.6,0-1.8-0.9-1.5c-1.5,0.9-2.8,1.5-4,2.4c-1.5,0.9-2.8,0.3-4.3,0.6
			c-2.4,0.6-4.6,4-6.1,5.8c-2.8,4-3.7,9.2-3.1,13.8c1.5,9.2,8.6,16.5,16.8,20.2c8.6,4,19.3,4.6,27.5-0.9c10.4-7,12.9-20.5,12.5-32.4
			c14.4-6.1,26.9-15.3,32.4-30.3C707.8,3,705.7-10.5,698.3-20z M389.6-47.2c0,0.6,0,0.9,0,1.5c-10.4-2.1-20.2-5.5-30-10.7
			c-3.7-1.8-8.3,2.1-5.8,5.8c0.6,0.6,0.9,1.2,1.5,1.8c-8.3,9.5-24.8,25.4-38.9,18.4c-15.3-7.3,12.2-30.9,17.4-34.9
			c3.1-2.4,1.5-7-1.2-8.9c-9.8-7-19.3-16.2-19-29.1c0.3-8.6,6.1-16.5,13.2-21.1c6.7-4.3,15.3-6.1,22.6-2.1
			c11.6,6.4,12.9,23.6,13.2,35.2c0,2.4,1.2,4,3.1,4.9c1.5,2.8,3.7,4.9,6.1,6.4c7,4.9,15,8.9,22.3,13.2
			C391.7-60.4,390.2-53.6,389.6-47.2z M592.4-0.1c-11.3,22.6-39.5,20.8-60.6,24.8c-5.5,0.9-5.2,9.8,0,11c5.8,1.2,11.3,1.8,16.8,1.8
			c10.7,10.7,17.1,18.7,14.1,33c-8.3-4.9-17.7-8.3-26.6-12.2c-3.1-1.5-8.3-0.6-8.9,3.7c-1.2,8.3-2.4,16.5-6.4,23.9
			c-4.3,8.3-21.1-30.3-20.8-29.4c-1.5-4-6.7-6.4-10.1-2.8c-4,4.6-25.1,30.3-26.6,14.4c-0.9-9.2,1.5-18.7,4-27.5
			c3.4,0,6.7,0,10.1-0.3c5.2-0.6,5.5-8,0-8.3c-2.4,0-4.9-0.3-7.3-0.6c0.9-4.3-5.5-5.8-7-1.5c0,0.3-0.3,0.3-0.3,0.6
			c-35.5-7.3-61.5-29.1-60-70.4c0.9-0.9,0.9-2.1,0-3.1c3.4-46.8,46.5-78,90.6-79.9c44.1-1.8,82.9,32.4,98.8,71.3
			C598.6-35.3,600.4-16.3,592.4-0.1z"/>
		<path fill="#F2680A" d="M514.4-80c-2.1-1.2-4-1.2-5.8-0.3c-0.3-2.8-4-4.3-5.8-1.2c-5.8,9.2-9.5,19.3-11,29.1
			c-0.6-13.2-4.3-26.6-8.9-36.1c-3.1-6.1-11.9-1.5-10.7,4.6c3.4,15.6,9.5,31.5,6.1,47.1c-0.3,1.8-1.5,5.8-1.8,6.4
			c-0.6,0.9-0.9,2.1-1.5,3.1c-0.3,0.6-0.6,0.9-0.9,1.5c0,0-0.6,0.9-0.9,1.2c-0.6,0.6-1.2,1.5-1.8,2.1c-0.3,0.3-1.5,1.2-1.8,1.5
			c-0.6,0.6-1.5,0.9-2.1,1.5c-0.3,0.3-0.9,0.6-1.2,0.6c-0.3,0.3-0.3,0.3-0.6,0.3c0,0,0,0-0.3,0c-4.6,1.8-5.8,1.8-10.4,1.5
			c-0.6,0-0.9,0-1.5,0l0,0l0,0c-0.9,0-1.8-0.3-2.8-0.6c-0.9-0.3-1.8-0.6-2.8-0.9c-1.8-0.6-0.3,0-1.8-0.9
			c-6.7-3.1-10.7-7.6-11.9-14.4c0-0.3,0-0.6,0-0.6s0,0,0-0.6c0-0.9,0-1.5,0-2.4c0-1.2,0-1.2,0-1.5c0-0.9,0.3-1.8,0.6-2.8
			c0.9-4,2.8-7,5.2-10.4c7-10.4,18.4-18.1,28.8-24.8c3.7-2.4,0.6-7.6-3.4-5.8c-19.6,9.2-50.5,30.3-41,56.6
			c6.1,16.8,26.9,25.4,43.5,19.6c14.1-4.6,20.8-16.5,23.3-30c1.8,26,19.3,47.7,52.9,45.6c2.8-0.3,5.2-1.8,5.8-4.6
			C561.2-30.7,544.4-61.6,514.4-80z M505.8-71.7c0.6,0.9,1.2,1.8,2.1,2.8c23.9,15.6,37,37.6,31.2,65.5
			C500.3-2.8,494.5-40.5,505.8-71.7z"/>
	</g>
</g>
</svg>
